<mxfile host="app.diagrams.net" modified="2022-07-20T13:09:07.823Z" agent="5.0 (Windows NT 10.0; Win64; x64) AppleWebKit/537.36 (KHTML, like Gecko) Chrome/101.0.0.0 Safari/537.36" etag="k7rIImJ4BzlhNe7h1xHs" version="20.0.4" type="github">
  <diagram id="wBjJY2U3W4vtlyiBhT6Q" name="Page-1">
    <mxGraphModel dx="815" dy="505" grid="1" gridSize="10" guides="1" tooltips="1" connect="1" arrows="1" fold="1" page="1" pageScale="1" pageWidth="827" pageHeight="1169" math="0" shadow="0">
      <root>
        <mxCell id="0" />
        <mxCell id="1" parent="0" />
        <mxCell id="1cK8PrYuun0VS4U50Isx-2" value="spiders" style="whiteSpace=wrap;html=1;aspect=fixed;" vertex="1" parent="1">
          <mxGeometry x="390" y="470" width="80" height="80" as="geometry" />
        </mxCell>
        <mxCell id="1cK8PrYuun0VS4U50Isx-3" value="管道文件" style="whiteSpace=wrap;html=1;aspect=fixed;" vertex="1" parent="1">
          <mxGeometry x="90" y="250" width="80" height="80" as="geometry" />
        </mxCell>
        <mxCell id="1cK8PrYuun0VS4U50Isx-4" value="调度器" style="whiteSpace=wrap;html=1;aspect=fixed;" vertex="1" parent="1">
          <mxGeometry x="390" y="40" width="80" height="80" as="geometry" />
        </mxCell>
        <mxCell id="1cK8PrYuun0VS4U50Isx-5" value="下载器" style="whiteSpace=wrap;html=1;aspect=fixed;" vertex="1" parent="1">
          <mxGeometry x="640" y="250" width="80" height="80" as="geometry" />
        </mxCell>
        <mxCell id="1cK8PrYuun0VS4U50Isx-6" value="" style="endArrow=classic;html=1;rounded=0;entryX=0.756;entryY=0.976;entryDx=0;entryDy=0;entryPerimeter=0;" edge="1" parent="1">
          <mxGeometry width="50" height="50" relative="1" as="geometry">
            <mxPoint x="450" y="470" as="sourcePoint" />
            <mxPoint x="450.48" y="328.0799999999999" as="targetPoint" />
          </mxGeometry>
        </mxCell>
        <mxCell id="1cK8PrYuun0VS4U50Isx-7" value="url" style="text;html=1;strokeColor=none;fillColor=none;align=center;verticalAlign=middle;whiteSpace=wrap;rounded=0;" vertex="1" parent="1">
          <mxGeometry x="430" y="390" width="60" height="30" as="geometry" />
        </mxCell>
        <mxCell id="1cK8PrYuun0VS4U50Isx-8" value="" style="endArrow=classic;html=1;rounded=0;entryX=0.75;entryY=1;entryDx=0;entryDy=0;" edge="1" parent="1" target="1cK8PrYuun0VS4U50Isx-4">
          <mxGeometry width="50" height="50" relative="1" as="geometry">
            <mxPoint x="450" y="250" as="sourcePoint" />
            <mxPoint x="500" y="200" as="targetPoint" />
          </mxGeometry>
        </mxCell>
        <mxCell id="1cK8PrYuun0VS4U50Isx-9" value="url" style="text;html=1;strokeColor=none;fillColor=none;align=center;verticalAlign=middle;whiteSpace=wrap;rounded=0;" vertex="1" parent="1">
          <mxGeometry x="410" y="170" width="60" height="30" as="geometry" />
        </mxCell>
        <mxCell id="1cK8PrYuun0VS4U50Isx-10" value="" style="endArrow=classic;html=1;rounded=0;entryX=0.86;entryY=0.019;entryDx=0;entryDy=0;entryPerimeter=0;" edge="1" parent="1" target="1cK8PrYuun0VS4U50Isx-11">
          <mxGeometry width="50" height="50" relative="1" as="geometry">
            <mxPoint x="460" y="120" as="sourcePoint" />
            <mxPoint x="480" y="250" as="targetPoint" />
          </mxGeometry>
        </mxCell>
        <mxCell id="1cK8PrYuun0VS4U50Isx-11" value="引擎" style="whiteSpace=wrap;html=1;aspect=fixed;" vertex="1" parent="1">
          <mxGeometry x="390" y="250" width="80" height="80" as="geometry" />
        </mxCell>
        <mxCell id="1cK8PrYuun0VS4U50Isx-12" value="请求" style="text;html=1;strokeColor=none;fillColor=none;align=center;verticalAlign=middle;whiteSpace=wrap;rounded=0;" vertex="1" parent="1">
          <mxGeometry x="440" y="170" width="60" height="30" as="geometry" />
        </mxCell>
        <mxCell id="1cK8PrYuun0VS4U50Isx-13" value="" style="endArrow=classic;html=1;rounded=0;entryX=-0.032;entryY=0.373;entryDx=0;entryDy=0;entryPerimeter=0;" edge="1" parent="1" target="1cK8PrYuun0VS4U50Isx-5">
          <mxGeometry width="50" height="50" relative="1" as="geometry">
            <mxPoint x="470" y="280" as="sourcePoint" />
            <mxPoint x="520" y="230" as="targetPoint" />
          </mxGeometry>
        </mxCell>
        <mxCell id="1cK8PrYuun0VS4U50Isx-14" value="请求" style="text;html=1;strokeColor=none;fillColor=none;align=center;verticalAlign=middle;whiteSpace=wrap;rounded=0;" vertex="1" parent="1">
          <mxGeometry x="520" y="250" width="60" height="30" as="geometry" />
        </mxCell>
        <mxCell id="1cK8PrYuun0VS4U50Isx-15" value="互联网" style="ellipse;shape=cloud;whiteSpace=wrap;html=1;" vertex="1" parent="1">
          <mxGeometry x="620" y="90" width="120" height="80" as="geometry" />
        </mxCell>
        <mxCell id="1cK8PrYuun0VS4U50Isx-16" value="" style="endArrow=classic;html=1;rounded=0;entryX=0.31;entryY=0.8;entryDx=0;entryDy=0;entryPerimeter=0;" edge="1" parent="1" target="1cK8PrYuun0VS4U50Isx-15">
          <mxGeometry width="50" height="50" relative="1" as="geometry">
            <mxPoint x="655" y="250" as="sourcePoint" />
            <mxPoint x="705" y="200" as="targetPoint" />
          </mxGeometry>
        </mxCell>
        <mxCell id="1cK8PrYuun0VS4U50Isx-17" value="" style="endArrow=classic;html=1;rounded=0;entryX=0.875;entryY=0;entryDx=0;entryDy=0;entryPerimeter=0;" edge="1" parent="1" target="1cK8PrYuun0VS4U50Isx-5">
          <mxGeometry width="50" height="50" relative="1" as="geometry">
            <mxPoint x="710" y="160" as="sourcePoint" />
            <mxPoint x="760" y="110" as="targetPoint" />
          </mxGeometry>
        </mxCell>
        <mxCell id="1cK8PrYuun0VS4U50Isx-18" value="下载数据" style="text;html=1;strokeColor=none;fillColor=none;align=center;verticalAlign=middle;whiteSpace=wrap;rounded=0;" vertex="1" parent="1">
          <mxGeometry x="650" y="200" width="60" height="30" as="geometry" />
        </mxCell>
        <mxCell id="1cK8PrYuun0VS4U50Isx-19" value="" style="endArrow=classic;html=1;rounded=0;entryX=1.032;entryY=0.623;entryDx=0;entryDy=0;entryPerimeter=0;" edge="1" parent="1" target="1cK8PrYuun0VS4U50Isx-11">
          <mxGeometry width="50" height="50" relative="1" as="geometry">
            <mxPoint x="640" y="300" as="sourcePoint" />
            <mxPoint x="690" y="250" as="targetPoint" />
          </mxGeometry>
        </mxCell>
        <mxCell id="1cK8PrYuun0VS4U50Isx-20" value="数据" style="text;html=1;strokeColor=none;fillColor=none;align=center;verticalAlign=middle;whiteSpace=wrap;rounded=0;" vertex="1" parent="1">
          <mxGeometry x="520" y="300" width="60" height="30" as="geometry" />
        </mxCell>
        <mxCell id="1cK8PrYuun0VS4U50Isx-22" value="" style="endArrow=classic;html=1;rounded=0;entryX=0.5;entryY=0;entryDx=0;entryDy=0;" edge="1" parent="1" target="1cK8PrYuun0VS4U50Isx-2">
          <mxGeometry width="50" height="50" relative="1" as="geometry">
            <mxPoint x="430" y="330" as="sourcePoint" />
            <mxPoint x="480" y="280" as="targetPoint" />
          </mxGeometry>
        </mxCell>
        <mxCell id="1cK8PrYuun0VS4U50Isx-23" value="数据" style="text;html=1;strokeColor=none;fillColor=none;align=center;verticalAlign=middle;whiteSpace=wrap;rounded=0;" vertex="1" parent="1">
          <mxGeometry x="384" y="390" width="60" height="30" as="geometry" />
        </mxCell>
        <mxCell id="1cK8PrYuun0VS4U50Isx-26" value="数据解析" style="text;html=1;strokeColor=none;fillColor=none;align=center;verticalAlign=middle;whiteSpace=wrap;rounded=0;" vertex="1" parent="1">
          <mxGeometry x="400" y="470" width="60" height="30" as="geometry" />
        </mxCell>
        <mxCell id="1cK8PrYuun0VS4U50Isx-27" value="解析完有两种类型的数据:&lt;br&gt;1.解析出来的数据就是我们想要的,比如图片链接,图片标题,价格...&lt;br&gt;2.解析出来的是详情页面的url(链接),对链接再次发起请求" style="rounded=1;whiteSpace=wrap;html=1;align=left;" vertex="1" parent="1">
          <mxGeometry x="470" y="470" width="350" height="60" as="geometry" />
        </mxCell>
        <mxCell id="1cK8PrYuun0VS4U50Isx-28" value="" style="endArrow=classic;html=1;rounded=0;entryX=0.119;entryY=1.045;entryDx=0;entryDy=0;entryPerimeter=0;" edge="1" parent="1" target="1cK8PrYuun0VS4U50Isx-11">
          <mxGeometry width="50" height="50" relative="1" as="geometry">
            <mxPoint x="400" y="470" as="sourcePoint" />
            <mxPoint x="450" y="420" as="targetPoint" />
          </mxGeometry>
        </mxCell>
        <mxCell id="1cK8PrYuun0VS4U50Isx-30" value="" style="endArrow=classic;html=1;rounded=0;entryX=0.75;entryY=1;entryDx=0;entryDy=0;" edge="1" parent="1">
          <mxGeometry width="50" height="50" relative="1" as="geometry">
            <mxPoint x="400" y="250" as="sourcePoint" />
            <mxPoint x="400" y="120" as="targetPoint" />
          </mxGeometry>
        </mxCell>
        <mxCell id="1cK8PrYuun0VS4U50Isx-31" value="url" style="text;html=1;strokeColor=none;fillColor=none;align=center;verticalAlign=middle;whiteSpace=wrap;rounded=0;" vertex="1" parent="1">
          <mxGeometry x="360" y="170" width="60" height="30" as="geometry" />
        </mxCell>
        <mxCell id="1cK8PrYuun0VS4U50Isx-32" value="" style="endArrow=classic;html=1;rounded=0;entryX=0.86;entryY=0.019;entryDx=0;entryDy=0;entryPerimeter=0;" edge="1" parent="1">
          <mxGeometry width="50" height="50" relative="1" as="geometry">
            <mxPoint x="410" y="120" as="sourcePoint" />
            <mxPoint x="408.79999999999995" y="251.51999999999998" as="targetPoint" />
          </mxGeometry>
        </mxCell>
        <mxCell id="1cK8PrYuun0VS4U50Isx-33" value="请求" style="text;html=1;strokeColor=none;fillColor=none;align=center;verticalAlign=middle;whiteSpace=wrap;rounded=0;" vertex="1" parent="1">
          <mxGeometry x="390" y="170" width="60" height="30" as="geometry" />
        </mxCell>
        <mxCell id="1cK8PrYuun0VS4U50Isx-34" value="" style="endArrow=classic;html=1;rounded=0;entryX=1;entryY=0.5;entryDx=0;entryDy=0;" edge="1" parent="1" target="1cK8PrYuun0VS4U50Isx-3">
          <mxGeometry width="50" height="50" relative="1" as="geometry">
            <mxPoint x="389" y="290" as="sourcePoint" />
            <mxPoint x="180" y="290" as="targetPoint" />
          </mxGeometry>
        </mxCell>
        <mxCell id="1cK8PrYuun0VS4U50Isx-36" value="数据" style="text;html=1;strokeColor=none;fillColor=none;align=center;verticalAlign=middle;whiteSpace=wrap;rounded=0;" vertex="1" parent="1">
          <mxGeometry x="250" y="260" width="60" height="30" as="geometry" />
        </mxCell>
        <mxCell id="1cK8PrYuun0VS4U50Isx-37" value="做数据持久化存储:&lt;br&gt;mysql mongodb excel 文件..." style="text;html=1;strokeColor=none;fillColor=none;align=center;verticalAlign=middle;whiteSpace=wrap;rounded=0;" vertex="1" parent="1">
          <mxGeometry x="50" y="220" width="160" height="30" as="geometry" />
        </mxCell>
      </root>
    </mxGraphModel>
  </diagram>
</mxfile>
